<?xml version="1.0" encoding="UTF-8" standalone="no"?>
<svg
   xmlns:dc="http://purl.org/dc/elements/1.1/"
   xmlns:cc="http://creativecommons.org/ns#"
   xmlns:rdf="http://www.w3.org/1999/02/22-rdf-syntax-ns#"
   xmlns:svg="http://www.w3.org/2000/svg"
   xmlns="http://www.w3.org/2000/svg"
   viewBox="0 0 793.70667 1122.52"
   height="1122.52"
   width="793.70667"
   xml:space="preserve"
   id="svg2"
   version="1.1"><metadata
     id="metadata8"><rdf:RDF><cc:Work
         rdf:about=""><dc:format>image/svg+xml</dc:format><dc:type
           rdf:resource="http://purl.org/dc/dcmitype/StillImage" /></cc:Work></rdf:RDF></metadata><defs
     id="defs6"><clipPath
       id="clipPath18"
       clipPathUnits="userSpaceOnUse"><path
         id="path16"
         d="M 0,841.89 H 595.28 V 0 H 0 Z" /></clipPath></defs><g
     transform="matrix(1.3333333,0,0,-1.3333333,0,1122.52)"
     id="g10"><g
       id="g12"><g
         clip-path="url(#clipPath18)"
         id="g14"><g
           transform="translate(218.9814,558.8198)"
           id="g20"><path
             id="path22"
             style="fill:#28a6d4;fill-opacity:1;fill-rule:evenodd;stroke:none"
             d="m 0,0 v 58.336 h 13.367 c 8.336,0 15.172,-6.836 15.172,-15.172 V 4.787 H 11.541 C 6.287,4.3 2.475,2.069 0,0" /></g><g
           transform="translate(311.3311,617.501)"
           id="g24"><path
             id="path26"
             style="fill:#e12b89;fill-opacity:1;fill-rule:evenodd;stroke:none"
             d="m 0,0 c 24.989,-0.507 45.11,-20.933 45.11,-46.064 0,-25.457 -20.648,-46.106 -46.084,-46.106 -20.871,0 -41.904,0.467 -62.837,0.467 v -33.144 c 0,-15.111 -12.373,-27.485 -27.484,-27.485 h -35.333 c -15.132,0 -27.505,12.374 -27.505,27.485 v 63.387 l 18.823,-0.183 c 6.957,-0.709 11.034,-7.443 11.257,-10.892 v -35.699 c 0,-8.703 7.14,-15.842 15.862,-15.842 h 15.841 v 32.373 10.162 5.294 c 0,8.519 6.957,15.476 15.456,15.476 H 0 c 9.067,0 16.409,7.019 16.409,15.66 0,8.661 -7.342,15.679 -16.409,15.679 z" /></g><g
           transform="translate(172.3901,617.1563)"
           id="g28"><path
             id="path30"
             style="fill:#28a6d4;fill-opacity:1;fill-rule:evenodd;stroke:none"
             d="m 0,0 h 14.888 v -58.093 c -8.782,8.053 -24.522,6.187 -30.08,5.213 v 37.708 C -15.192,-6.836 -8.356,0 0,0" /></g><g
           transform="translate(493.9414,617.1563)"
           id="g32"><path
             id="path34"
             style="fill:#28a6d4;fill-opacity:1;fill-rule:evenodd;stroke:none"
             d="m 0,0 h 17.77 v -136.997 c 0,-8.256 -6.756,-14.99 -14.991,-14.99 h -14.99 V -12.21 C -12.211,-5.497 -6.713,0 0,0" /></g><g
           transform="translate(49.7988,617.1563)"
           id="g36"><path
             id="path38"
             style="fill:#28a6d4;fill-opacity:1;fill-rule:evenodd;stroke:none"
             d="m 0,0 h 62.817 c 15.132,0 27.504,-12.373 27.504,-27.484 v -97.018 c 0,-15.111 -12.372,-27.485 -27.504,-27.485 l -62.817,0 z m 27.889,-28.64 h 16.836 c 9.269,0 16.855,-7.588 16.855,-16.857 v -61.379 c 0,-9.27 -7.586,-16.855 -16.855,-16.855 H 27.889 Z" /></g><g
           transform="translate(350.1738,535.7163)"
           id="g40"><path
             id="path42"
             style="fill:#28a6d4;fill-opacity:1;fill-rule:evenodd;stroke:none"
             d="m 0,0 c 3.488,-6.713 5.477,-14.34 5.477,-22.433 0,-22.109 -14.747,-40.772 -34.909,-46.714 -13.264,-3.895 -27.564,-1.4 -41.235,-1.4 -8.032,0 -14.604,6.572 -14.604,14.604 l 0.345,38.905 30.019,0.325 v -9.454 h 0.02 v -0.019 c 0,-8.985 7.282,-16.268 16.268,-16.268 8.985,0 16.287,7.283 16.287,16.268 0,4.503 -1.825,8.561 -4.766,11.5 C -13.002,-14.726 -3.691,-4.827 0,0" /></g><g
           transform="translate(303.3809,519.0234)"
           id="g44"><path
             id="path46"
             style="fill:#e12b89;fill-opacity:1;fill-rule:evenodd;stroke:none"
             d="m 0,0 h 8.012 c 4.421,0 8.031,-3.611 8.031,-8.033 0,-4.402 -3.61,-8.011 -8.031,-8.011 -4.403,0 -8.012,3.609 -8.012,8.011 z" /></g><g
           transform="translate(374.1289,518.2529)"
           id="g48"><path
             id="path50"
             style="fill:#28a6d4;fill-opacity:1;fill-rule:evenodd;stroke:none"
             d="m 0,0 h 28.924 v -38.621 c 0,-7.951 -6.512,-14.463 -14.463,-14.463 H 0 Z" /></g><g
           transform="translate(464.2871,532.5723)"
           id="g52"><path
             id="path54"
             style="fill:#28a6d4;fill-opacity:1;fill-rule:evenodd;stroke:none"
             d="M 0,0 C -6.672,-9.614 -16.631,-13.873 -28.924,-14.319 V -52.94 c 0,-7.952 6.512,-14.463 14.463,-14.463 H 0 Z" /></g><g
           transform="translate(403.0527,563.5459)"
           id="g56"><path
             id="path58"
             style="fill:#28a6d4;fill-opacity:1;fill-rule:evenodd;stroke:none"
             d="M 0,0 C -17.262,0.223 -19.918,2.476 -28.924,-5.335 V 26.41 c 0,13.712 14.158,26.673 26.104,26.673 H 6.389 C 2.414,50.893 0.162,47.181 0,41.684 Z" /></g><g
           transform="translate(374.0273,526.4678)"
           id="g60"><path
             id="path62"
             style="fill:#e12b89;fill-opacity:1;fill-rule:evenodd;stroke:none"
             d="m 0,0 h 31.316 29.452 c 16.795,0 30.546,13.732 30.546,30.547 v 30.162 c 0,15.902 -12.31,29.087 -27.888,30.446 l -12.313,0.304 c -7.849,0 -14.259,-6.43 -14.259,-14.28 V 63.082 l -0.141,-0.183 h 8.396 c 9.25,0 16.795,-7.565 16.795,-16.815 0,-9.229 -7.545,-16.794 -16.795,-16.794 -10.263,0 -20.384,-0.184 -30.546,-0.184 C 6.551,29.106 0,22.555 0,14.543 Z" /></g><g
           transform="translate(182.6333,458.1309)"
           id="g64"><path
             id="path66"
             style="fill:#e12b89;fill-opacity:1;fill-rule:evenodd;stroke:none"
             d="m 0,0 h 8.033 c 4.401,0 8.011,-3.61 8.011,-8.012 0,-4.423 -3.61,-8.032 -8.011,-8.032 -4.422,0 -8.033,3.609 -8.033,8.032 z" /></g><g
           transform="translate(206.5684,458.1309)"
           id="g68"><path
             id="path70"
             style="fill:#e12b89;fill-opacity:1;fill-rule:evenodd;stroke:none"
             d="m 0,0 h 8.012 c 4.421,0 8.011,-3.61 8.011,-8.012 0,-4.423 -3.59,-8.032 -8.011,-8.032 -4.403,0 -8.012,3.609 -8.012,8.032 z" /></g><g
           transform="translate(265.5723,617.4399)"
           id="g72"><path
             id="path74"
             style="fill:#28a6d4;fill-opacity:1;fill-rule:evenodd;stroke:none"
             d="m 0,0 h 37.809 v -32.23 c -5.072,-1.562 -8.804,-6.309 -8.804,-11.867 v -8.985 l -29.005,0 z" /></g></g></g></g></svg>